#tb 0: 100/2997
0,          4,          4,        1,   460800, 0x54aedafe
0,          5,          5,        1,   460800, 0xb7aa8b56
0,          6,          6,        1,   460800, 0x283ea3b5
0,          7,          7,        1,   460800, 0x283ea3b5
0,          8,          8,        1,   460800, 0x10e577de
0,          9,          9,        1,   460800, 0x4e091ee2
0,         10,         10,        1,   460800, 0x2ea88828
0,         11,         11,        1,   460800, 0x4b7f4df0
0,         12,         12,        1,   460800, 0xa57f20d0
